<?xml version="1.0" encoding="UTF-8"?><svg id="Layer_1" xmlns="http://www.w3.org/2000/svg" viewBox="0 0 1904.18 613.92"><path d="M144.76,106.19V413.7c0,90.12,10.32,119.7,38.53,136.9,15.82,9.63,33.02,13.07,48.84,15.13,4.82,.69,8.94,2.06,8.94,4.13s-2.06,4.13-3.44,4.13c-33.02-1.38-67.42-1.38-92.87-1.38-32.33,0-47.47,0-77.05,2.06-2.75,0-3.44-2.06-3.44-3.44,0-2.06,2.06-4.13,5.5-4.82,52.28-8.26,57.79-44.03,57.79-152.72V94.49c0-17.2-28.89-24.08-48.16-26.14-6.19-.69-7.57-3.44-7.57-5.5,0-1.38,.69-2.75,3.44-2.75l105.94,2.06L497.68,467.36V192.87c0-48.84-10.32-91.5-38.53-108.69-15.82-9.63-33.02-13.07-48.84-15.13-4.82-.69-8.94-2.06-8.94-4.13s2.06-4.13,3.44-4.13c33.02,1.38,67.42,1.38,92.87,1.38,32.33,0,47.47,0,77.05-2.06,2.75,0,3.44,2.06,3.44,3.44,0,2.06-2.06,4.13-5.5,4.82-52.28,8.26-57.79,57.1-57.79,124.52v388L144.76,106.19Z"/><path d="M623.57,390.31c0-116.95,87.37-193.31,187.12-193.31,108.7,0,153.41,88.74,153.41,145.84h-287.56l-.69,16.51c0,114.2,62.6,194.69,149.28,194.69,72.23,0,112.13-37.15,127.96-58.48,2.06-2.75,4.13-5.5,6.19-5.5,.69,0,1.38,.69,1.38,1.38s-3.44,6.88-6.88,11.69c-16.51,23.39-66.04,80.49-147.91,80.49-95.62,0-182.3-75.67-182.3-193.31Zm237.34-66.73c29.58-2.06,35.77-6.88,35.77-32.33,0-31.65-44.72-79.8-109.38-79.8-68.11,0-103.19,54.35-110.07,121.77,97-4.82,147.91-6.88,183.68-9.63Z"/><path d="M1003.31,570.55c0-2.06,3.44-2.75,11.01-4.13,11.01-2.06,16.51-3.44,21.33-5.5,14.45-6.19,15.13-15.82,15.13-67.42V156.41c0-74.99-.69-83.93-18.57-83.93-5.5,0-12.38,.69-22.7,3.44-4.82,1.38-8.26,2.06-9.63,2.06s-2.75-2.06-2.75-3.44c0-.69,1.38-2.06,5.5-3.44,39.9-13.76,66.73-26.83,92.18-44.03,2.06-1.38,3.44-2.06,4.13-2.06s1.38,1.38,1.38,4.13V493.5c0,51.6,1.38,61.92,14.45,67.42,6.88,2.75,10.32,3.44,21.33,5.5,7.57,1.38,11.01,2.06,11.01,4.13,0,2.75-.69,4.13-4.13,4.13-27.52-1.38-48.84-2.06-68.11-2.06-17.2,0-43.34,.69-67.42,2.06-3.44,0-4.13-2.06-4.13-4.13Z"/><path d="M1205.56,570.55c0-2.06,3.44-2.75,11.01-4.13,11.01-2.06,16.51-3.44,21.33-5.5,14.45-6.19,15.13-15.82,15.13-67.42V156.41c0-74.99-.69-83.93-18.57-83.93-5.5,0-12.38,.69-22.7,3.44-4.82,1.38-8.26,2.06-9.63,2.06s-2.75-2.06-2.75-3.44c0-.69,1.38-2.06,5.5-3.44,39.9-13.76,66.73-26.83,92.18-44.03,2.06-1.38,3.44-2.06,4.13-2.06s1.38,1.38,1.38,4.13V493.5c0,51.6,1.38,61.92,14.45,67.42,6.88,2.75,10.32,3.44,21.33,5.5,7.57,1.38,11.01,2.06,11.01,4.13,0,2.75-.69,4.13-4.13,4.13-27.52-1.38-48.84-2.06-68.11-2.06-17.2,0-43.34,.69-67.42,2.06-3.44,0-4.13-2.06-4.13-4.13Z"/><path d="M1397.5,390.31c0-116.95,87.37-193.31,187.12-193.31,108.7,0,153.41,88.74,153.41,145.84h-287.56l-.69,16.51c0,114.2,62.6,194.69,149.28,194.69,72.23,0,112.13-37.15,127.96-58.48,2.06-2.75,4.13-5.5,6.19-5.5,.69,0,1.38,.69,1.38,1.38s-3.44,6.88-6.88,11.69c-16.51,23.39-66.04,80.49-147.91,80.49-95.62,0-182.3-75.67-182.3-193.31Zm237.34-66.73c29.58-2.06,35.77-6.88,35.77-32.33,0-31.65-44.72-79.8-109.38-79.8-68.11,0-103.19,54.35-110.07,121.77,97-4.82,147.91-6.88,183.68-9.63Z"/><path d="M1771.04,542.34c0-22.01,18.57-40.59,39.21-40.59s40.59,17.2,40.59,42.65c0,20.64-17.2,37.15-39.9,37.15-21.33,0-39.9-17.89-39.9-39.21Z"/></svg>